PathFileType	4	(X/Y/Z)	C:/Users/beibeiliu/ov580/test_trc/User3\sequence.4_training_dense_right.trc
DataRate	CameraRate	NumFrames	NumMarkers	Units	OrigDataRate	OrigDataStartFrame	OrigNumFrames
120	120	10	19	mm	120	1	92
Frame#	Time	ThumbCMC			ThumbMCP			ThumbIP			ThumbTip			IndexMCP			IndexPIP			IndexTip			MiddleMCP			MiddlePIP			MiddleTip			RingMCP			RingPIP			RingTip			PinkyMCP			PinkyPIP			PinkyTip			BackHand1			BackHand2			BackHand3	
		X0	Y0	Z0	X1	Y1	Z1	X2	Y2	Z2	X3	Y3	Z3	X4	Y4	Z4	X5	Y5	Z5	X6	Y6	Z6	X7	Y7	Z7	X8	Y8	Z8	X9	Y9	Z9	X10	Y10	Z10	X11	Y11	Z11	X12	Y12	Z12	X13	Y13	Z13	X14	Y14	Z14	X15	Y15	Z15	X16	Y16	Z16	X17	Y17	Z17	X18	Y18	Z18	
0	0	136.066	16.0072	-25.2652	112.444	5.04304	-45.8775	96.1407	-4.40508	-69.0732	84.4495	-12.4227	-85.0874	147.033	26.7441	-101.693	137.601	22.8066	-129.633	128.393	21.3098	-149.074	176.426	27.0536	-107.438	170.268	24.2629	-134.479	170.344	19.1678	-165.723	194.956	18.1757	-99.405	198.006	15.9483	-124.614	204.099	11.5802	-150.858	214.112	7.38846	-82.4791	225.297	3.19369	-100.781	237.079	0.396462	-117.083	193.887	31.2544	-49.6504	194.041	37.0692	-18.85	161.86	38.5412	-35.3148	
1	0.00833333	133.431	15.4859	-30.596	115.837	4.39323	-45.582	96.8655	-4.66873	-71.1343	81.7174	-13.1922	-82.6009	146.656	25.7451	-102.319	135.225	23.6073	-129.232	131.285	19.6052	-153.563	172.523	26.717	-106.977	169.29	23.2432	-139.062	169.587	18.6011	-168.221	192.62	18.6755	-102.376	202.015	14.8654	-122.063	202.543	10.1818	-151.417	213.17	6.76435	-82.5103	226.121	2.53464	-102.717	234.003	-2.15426	-122.995	193.247	30.1572	-49.9834	194.026	34.8505	-19.5824	161.264	38.8631	-38.801	
2	0.0166667	132.58	15.2777	-25.2151	116.281	3.56624	-48.5713	96.6133	-4.95601	-71.1463	86.7792	-13.6026	-87.4287	147.513	27.2609	-102.632	136.152	25.0544	-125.405	133.888	21.4342	-150.588	172.97	28.5718	-111.657	169.771	24.6865	-138.753	170.705	15.9537	-169.987	195.567	20.1229	-100.515	198.138	16.8006	-122.931	202.448	7.12225	-150.732	213.772	10.0905	-83.7471	225.273	3.55456	-101.351	232.421	-2.56789	-121.18	194.329	30.9337	-50.349	197.35	34.9285	-21.3895	163.388	39.2615	-36.2876	
3	0.025	132.797	17.1063	-28.6799	116.583	5.09355	-48.2238	103.083	-4.07731	-77.1953	94.52	-14.7616	-95.2925	148.105	34.089	-99.7997	139.584	31.4176	-130.024	139.574	27.1278	-153.132	178.957	35.0257	-108.172	175.924	27.9709	-140.126	174.53	8.93993	-165.804	195.138	28.0891	-101.029	200.343	20.3601	-127.904	198.41	1.36076	-149.345	213.717	15.4691	-82.0444	223.526	9.27031	-101.878	227.285	-7.86476	-126.464	192.813	36.7717	-48.8914	196.33	35.1857	-17.0586	160.715	42.0421	-38.277	
4	0.0333333	134.801	21.0553	-30.7854	123.174	7.00682	-52.8849	113.814	-3.14164	-81.938	114.675	-15.1415	-104.101	155.004	42.0427	-102.232	146.853	41.5268	-127.19	148.112	33.8448	-152.554	178.115	40.3024	-103.713	176.422	24.9317	-138.306	170.673	-6.3165	-149.274	196.369	30.0894	-95.3004	196.883	16.3099	-127.185	190.18	-14.5175	-133.946	215.232	16.8049	-79.35	219.448	6.20839	-108.233	210.109	-18.8355	-117.94	196.179	38.4638	-43.9722	201.927	38.3052	-15.194	168.905	44.9914	-32.631	
5	0.0416667	137.901	20.8233	-32.1324	129.935	5.44238	-55.3903	125.413	-6.64626	-81.0255	132.966	-18.3748	-103.26	155.674	44.0673	-99.8319	156.281	42.9219	-128.929	148.52	37.9739	-155.346	181.574	35.1942	-104.894	177.078	12.9099	-131.951	164.479	-19.9085	-118.785	195.103	25.1318	-99.9009	195.315	2.08803	-120.085	179.533	-22.3093	-105.958	214.737	13.4948	-84.6693	209.881	-1.55289	-105.115	192.729	-30.3894	-95.973	202.255	36.6516	-46.2243	200.938	37.1325	-17.5925	170.931	46.1999	-35.8443	
6	0.05	140.602	18.9222	-31.7842	127.59	2.87858	-57.331	128.757	-11.3351	-87.6878	144.73	-24.8588	-104.464	159.026	43.0244	-100.354	154.8	43.8374	-129.849	158.191	36.8362	-154.084	176.971	26.242	-107.285	168.409	-3.5564	-121.991	159.673	-22.3646	-88.5927	195.495	11.9692	-100.197	187.119	-16.3966	-107.273	174.346	-26.4691	-78.636	208.538	5.83161	-84.0865	199.921	-20.1157	-96.4107	183.563	-30.1687	-70.3596	199.739	36.6907	-44.6961	199.007	35.0864	-15.9404	169.396	45.0352	-35.7023	
7	0.0583333	138.724	18.7011	-29.2116	128.36	2.0023	-59.7498	133.118	-13.0862	-87.9209	154.58	-25.906	-103.484	159.717	43.3294	-102.275	161.193	40.0405	-132.218	160.755	35.9728	-157.644	176.697	15.9664	-107.265	163.726	-13.8926	-109.493	162.475	-14.481	-68.1575	192.131	1.37848	-97.2917	180.963	-25.7663	-92.4222	168.727	-21.5612	-63.1456	206.413	-0.906621	-83.411	192.157	-25.3454	-87.9661	181.262	-26.8022	-55.7925	200.636	36.5165	-50.3252	200.123	34.0086	-14.592	168.099	45.8186	-33.6714	
8	0.0666667	143.111	19.2684	-35.653	129.656	2.20953	-61.9024	137.497	-12.2385	-87.4054	158.788	-25.9793	-101.238	164.858	42.0189	-104.682	164.204	41.7018	-131.787	166.805	37.2142	-153.663	178.3	13.2034	-105.397	163.305	-17.6185	-100.451	160.718	-10.6523	-66.6525	190.465	2.74254	-93.4976	177.272	-25.04	-87.5436	170.468	-14.7142	-53.2266	205.65	-6.08714	-84.0395	186.729	-26.5788	-78.8217	184.485	-22.0873	-49.5436	206.387	34.412	-49.4049	204.307	31.9608	-17.9686	172.755	43.8235	-33.767	
9	0.075	141.781	21.4585	-33.5469	132.92	2.35198	-65.1561	141.548	-12.1704	-90.3704	167.288	-24.4592	-101.706	171.897	43.8872	-104.872	168.152	44.4693	-129.466	173.222	39.2709	-157.481	178.676	13.2655	-107.545	166.104	-16.678	-99.2707	162.607	-7.4407	-64.4064	194.455	2.39579	-92.3522	178.846	-23.5683	-85.1152	171.747	-12.4311	-53.0324	209.456	-7.66477	-82.6299	189.524	-26.4324	-75.1109	182.565	-15.9955	-47.4321	203.282	35.0064	-47.4265	205.38	32.4052	-18.8628	176.97	46.1462	-33.548	
